<?xml version="1.0" encoding="UTF-8" standalone="no"?>
<!DOCTYPE svg PUBLIC "-//W3C//DTD SVG 1.1//EN" "http://www.w3.org/Graphics/SVG/1.1/DTD/svg11.dtd">
<svg xmlns="http://www.w3.org/2000/svg" version="1.1" viewBox="0.00 0.00 200.00 200.00">
<g stroke-width="2.00" fill="none" stroke-linecap="butt">
<path stroke="#9fd1a2" vector-effect="non-scaling-stroke" d="
  M 46.54 133.02
  C 57.50 158.03 75.41 176.63 104.24 177.22
  Q 114.26 177.42 124.22 177.36
  Q 138.97 177.26 147.78 165.78
  C 163.83 144.89 162.01 118.00 161.82 93.25
  Q 161.79 89.81 163.65 86.97
  Q 163.94 86.54 163.94 86.02
  L 164.00 74.22
  Q 164.00 73.70 163.48 73.63
  L 156.71 72.77
  A 1.22 1.19 -13.8 0 1 155.90 72.29
  L 149.32 63.26
  Q 148.95 62.75 148.96 62.12
  C 149.10 53.08 148.43 46.87 141.64 40.34
  Q 132.74 31.78 118.67 30.00
  A 1.47 1.44 -19.0 0 1 117.83 29.60
  Q 114.13 26.16 109.00 25.77
  C 95.26 24.73 84.51 25.61 72.17 32.01
  Q 69.75 33.26 66.02 34.78
  C 55.71 38.96 38.01 51.71 37.25 64.24
  Q 36.65 74.00 37.90 84.44
  Q 37.96 84.95 37.53 85.20
  C 27.21 91.08 26.06 100.67 26.77 111.79
  Q 27.78 127.41 42.48 131.85
  C 43.43 132.14 44.70 132.05 45.77 132.36
  A 1.20 1.19 -4.3 0 1 46.54 133.02"
/>
<path stroke="#808080" vector-effect="non-scaling-stroke" d="
  M 140.33 61.75
  L 143.03 62.24
  A 1.25 1.24 -83.3 0 0 144.49 61.08
  C 145.46 45.43 127.29 36.09 114.48 34.27
  C 112.58 34.01 110.50 31.15 107.75 30.72
  Q 92.05 28.25 78.48 35.29
  Q 74.18 37.52 70.67 38.99
  Q 56.01 45.12 46.03 57.78
  C 38.78 66.98 41.63 77.57 43.95 87.87
  Q 44.06 88.39 43.59 88.63
  Q 29.07 96.20 31.67 111.43
  C 33.15 120.13 40.72 127.50 49.70 127.78
  A 1.32 1.31 79.3 0 1 50.86 128.58
  C 56.46 141.78 65.51 155.38 77.27 163.26
  C 86.59 169.51 95.71 172.12 107.46 172.90
  C 120.38 173.75 134.35 173.33 142.43 162.69
  Q 148.51 154.69 151.17 148.64
  C 156.49 136.50 157.30 121.85 157.56 107.58
  C 157.63 103.32 157.05 98.73 156.84 94.28
  C 156.72 91.62 157.52 89.01 157.58 86.19
  C 157.61 84.79 158.07 84.10 159.10 83.27
  A 1.10 1.08 -19.8 0 0 159.49 82.46
  L 159.50 78.53
  A 0.69 0.68 -88.7 0 0 158.85 77.84
  C 155.87 77.69 152.67 78.42 150.70 75.52
  Q 145.88 68.38 140.17 62.04
  A 0.18 0.17 -16.2 0 1 140.33 61.75"
/>
<path stroke="#808080" vector-effect="non-scaling-stroke" d="
  M 123.48 61.77
  L 116.30 57.27
  A 0.53 0.53 0.0 0 0 115.49 57.65
  Q 115.38 58.46 115.68 59.24
  A 1.23 1.23 0.0 0 1 114.03 60.80
  Q 104.15 56.37 93.74 55.60
  C 86.07 55.03 81.84 58.63 75.26 60.47
  Q 71.27 61.59 69.70 62.97
  C 67.59 64.83 64.99 68.64 65.83 71.66
  C 66.47 73.99 68.37 78.66 67.91 80.94
  Q 67.76 81.66 68.49 81.55
  L 98.07 76.86
  Q 98.56 76.78 98.73 76.32
  C 100.25 72.21 116.58 69.86 116.71 76.97
  Q 116.72 77.51 117.23 77.68
  Q 125.07 80.35 132.96 77.78
  Q 133.39 77.64 133.42 77.20
  C 133.76 73.01 138.05 72.30 141.42 72.34
  Q 141.96 72.34 141.63 71.92
  Q 135.19 63.70 126.15 58.47
  Q 124.96 57.77 124.98 59.15
  Q 124.98 59.77 125.20 60.39
  A 1.17 1.17 0.0 0 1 123.48 61.77"
/>
<path stroke="#808080" vector-effect="non-scaling-stroke" d="
  M 140.8762 76.2475
  A 1.40 0.28 -4.2 0 0 139.4595 76.0708
  A 1.40 0.28 -4.2 0 0 138.0838 76.4525
  A 1.40 0.28 -4.2 0 0 139.5005 76.6292
  A 1.40 0.28 -4.2 0 0 140.8762 76.2475"
/>
<path stroke="#808080" vector-effect="non-scaling-stroke" d="
  M 97.46 80.89
  C 95.47 82.74 95.68 87.38 96.10 89.97
  C 97.20 96.67 104.48 99.63 110.34 97.33
  C 115.49 95.31 117.95 90.31 118.54 84.97
  A 0.88 0.87 -75.7 0 0 118.01 84.07
  L 113.95 82.34
  A 0.32 0.32 0.0 0 0 113.52 82.75
  Q 114.85 86.20 113.00 88.53
  C 108.66 94.03 100.30 88.20 104.42 82.07
  A 0.30 0.29 -81.5 0 0 104.09 81.62
  L 99.13 83.16
  A 1.43 1.42 87.6 0 1 97.32 81.49
  L 97.46 80.89"
/>
<path stroke="#808080" vector-effect="non-scaling-stroke" d="
  M 97.46 80.89
  L 101.42 79.27
  Q 101.89 79.08 102.40 79.14
  Q 103.01 79.21 103.57 78.96
  Q 104.03 78.75 103.52 78.76
  Q 99.99 78.83 97.46 80.89"
/>
<path stroke="#808080" vector-effect="non-scaling-stroke" d="
  M 154.2130 83.8403
  A 1.60 0.28 74.3 0 0 154.0496 82.2242
  A 1.60 0.28 74.3 0 0 153.3470 80.7597
  A 1.60 0.28 74.3 0 0 153.5104 82.3758
  A 1.60 0.28 74.3 0 0 154.2130 83.8403"
/>
<path stroke="#808080" vector-effect="non-scaling-stroke" d="
  M 145.88 81.92
  C 151.35 92.98 132.85 93.42 136.58 83.08
  A 0.47 0.47 0.0 0 0 135.95 82.49
  L 132.33 84.09
  Q 131.86 84.30 131.90 84.81
  C 132.67 94.99 141.60 101.70 151.21 95.94
  A 0.91 0.91 0.0 0 0 151.64 95.01
  Q 150.63 88.82 148.21 83.07
  A 2.09 2.08 -87.5 0 0 147.25 82.02
  L 146.29 81.52
  Q 145.48 81.10 145.88 81.92"
/>
<path stroke="#808080" vector-effect="non-scaling-stroke" d="
  M 141.81 142.41
  L 146.40 142.94
  A 1.56 1.55 -79.7 0 0 148.09 141.77
  Q 153.22 120.95 152.09 99.48
  Q 152.06 99.02 151.63 99.19
  Q 146.70 101.11 141.56 100.37
  C 132.99 99.13 130.18 92.89 127.19 85.79
  Q 126.44 84.02 124.91 84.31
  A 1.97 1.96 6.7 0 0 123.48 85.43
  Q 121.92 88.89 120.00 92.33
  Q 114.41 102.32 102.71 100.49
  C 94.94 99.27 92.54 91.84 92.56 85.20
  Q 92.56 83.35 90.73 83.54
  L 68.24 85.81
  Q 67.67 85.87 67.61 86.45
  Q 66.70 95.05 65.93 103.66
  Q 65.62 107.08 66.40 110.24
  Q 70.14 125.36 76.57 139.56
  Q 79.06 145.06 84.46 147.46
  C 88.16 149.11 91.15 146.29 93.99 144.58
  A 1.01 1.00 -30.4 0 1 95.38 144.94
  C 98.84 151.01 105.12 157.19 111.60 159.68
  Q 112.26 159.93 112.52 159.27
  Q 112.90 158.32 113.64 157.67
  A 0.90 0.90 0.0 0 1 114.47 157.46
  Q 119.75 158.73 125.00 157.43
  A 0.86 0.84 -26.2 0 1 125.88 157.72
  L 127.09 159.24
  Q 127.36 159.58 127.77 159.45
  C 134.07 157.54 138.90 148.71 140.93 142.95
  Q 141.15 142.33 141.81 142.41"
/>
<path stroke="#808080" vector-effect="non-scaling-stroke" d="
  M 53.88 92.33
  C 41.90 91.59 32.19 102.66 37.90 114.08
  Q 42.18 122.64 52.16 123.06
  Q 53.71 123.13 54.40 124.58
  Q 58.20 132.65 62.79 139.95
  Q 63.18 140.57 63.01 139.86
  Q 59.40 124.81 60.68 109.23
  Q 60.76 108.25 60.40 107.29
  Q 57.70 100.06 54.61 92.85
  Q 54.40 92.37 53.88 92.33"
/>
<path stroke="#808080" vector-effect="non-scaling-stroke" d="
  M 135.52 106.69
  C 138.03 110.16 136.19 113.78 132.35 114.42
  Q 129.75 114.86 126.82 115.16
  A 1.24 1.23 -4.0 0 0 125.71 116.43
  L 125.73 116.89
  A 1.63 1.63 0.0 0 0 127.33 118.47
  C 131.43 118.56 136.95 117.70 139.23 114.08
  C 141.71 110.15 139.53 105.03 136.33 102.17
  Q 132.92 99.13 127.58 97.12
  A 1.33 1.33 0.0 0 0 125.92 97.80
  L 125.77 98.12
  Q 125.12 99.50 126.44 100.25
  C 129.65 102.09 132.97 103.16 135.52 106.69"
/>
<path stroke="#808080" vector-effect="non-scaling-stroke" d="
  M 138.28 126.27
  C 133.48 124.42 126.52 122.10 121.95 122.88
  Q 120.23 123.17 119.01 123.09
  Q 111.20 122.56 102.06 126.19
  Q 99.93 127.03 99.91 129.33
  L 99.90 129.62
  Q 99.88 131.95 102.06 131.13
  Q 119.81 124.46 137.58 131.09
  Q 139.98 131.99 140.00 129.43
  L 140.00 128.78
  A 2.69 2.67 10.8 0 0 138.28 126.27"
/>
<path stroke="#808080" vector-effect="non-scaling-stroke" d="
  M 109.58 138.39
  Q 119.21 142.13 128.78 138.25
  A 1.43 1.42 -17.6 0 0 129.64 136.60
  L 129.53 136.13
  Q 129.10 134.34 127.38 134.99
  Q 118.93 138.18 110.51 134.98
  A 1.43 1.42 -69.4 0 0 108.66 135.82
  L 108.55 136.12
  Q 107.95 137.76 109.58 138.39"
/>
<path stroke="#808080" vector-effect="non-scaling-stroke" d="
  M 50.5516 103.5256
  A 2.58 2.58 0.0 0 0 47.3697 101.7400
  L 47.1386 101.8049
  A 2.58 2.58 0.0 0 0 45.3530 104.9868
  L 47.3284 112.0144
  A 2.58 2.58 0.0 0 0 50.5103 113.8000
  L 50.7414 113.7351
  A 2.58 2.58 0.0 0 0 52.5270 110.5532
  L 50.5516 103.5256"
/>
</g>
<path fill="#3fa245" d="
  M 0.00 0.00
  L 200.00 0.00
  L 200.00 200.00
  L 0.00 200.00
  L 0.00 0.00
  Z
  M 46.54 133.02
  C 57.50 158.03 75.41 176.63 104.24 177.22
  Q 114.26 177.42 124.22 177.36
  Q 138.97 177.26 147.78 165.78
  C 163.83 144.89 162.01 118.00 161.82 93.25
  Q 161.79 89.81 163.65 86.97
  Q 163.94 86.54 163.94 86.02
  L 164.00 74.22
  Q 164.00 73.70 163.48 73.63
  L 156.71 72.77
  A 1.22 1.19 -13.8 0 1 155.90 72.29
  L 149.32 63.26
  Q 148.95 62.75 148.96 62.12
  C 149.10 53.08 148.43 46.87 141.64 40.34
  Q 132.74 31.78 118.67 30.00
  A 1.47 1.44 -19.0 0 1 117.83 29.60
  Q 114.13 26.16 109.00 25.77
  C 95.26 24.73 84.51 25.61 72.17 32.01
  Q 69.75 33.26 66.02 34.78
  C 55.71 38.96 38.01 51.71 37.25 64.24
  Q 36.65 74.00 37.90 84.44
  Q 37.96 84.95 37.53 85.20
  C 27.21 91.08 26.06 100.67 26.77 111.79
  Q 27.78 127.41 42.48 131.85
  C 43.43 132.14 44.70 132.05 45.77 132.36
  A 1.20 1.19 -4.3 0 1 46.54 133.02
  Z"
/>
<path fill="#ffffff" d="
  M 45.77 132.36
  C 44.70 132.05 43.43 132.14 42.48 131.85
  Q 27.78 127.41 26.77 111.79
  C 26.06 100.67 27.21 91.08 37.53 85.20
  Q 37.96 84.95 37.90 84.44
  Q 36.65 74.00 37.25 64.24
  C 38.01 51.71 55.71 38.96 66.02 34.78
  Q 69.75 33.26 72.17 32.01
  C 84.51 25.61 95.26 24.73 109.00 25.77
  Q 114.13 26.16 117.83 29.60
  A 1.47 1.44 -19.0 0 0 118.67 30.00
  Q 132.74 31.78 141.64 40.34
  C 148.43 46.87 149.10 53.08 148.96 62.12
  Q 148.95 62.75 149.32 63.26
  L 155.90 72.29
  A 1.22 1.19 -13.8 0 0 156.71 72.77
  L 163.48 73.63
  Q 164.00 73.70 164.00 74.22
  L 163.94 86.02
  Q 163.94 86.54 163.65 86.97
  Q 161.79 89.81 161.82 93.25
  C 162.01 118.00 163.83 144.89 147.78 165.78
  Q 138.97 177.26 124.22 177.36
  Q 114.26 177.42 104.24 177.22
  C 75.41 176.63 57.50 158.03 46.54 133.02
  A 1.20 1.19 -4.3 0 0 45.77 132.36
  Z
  M 140.33 61.75
  L 143.03 62.24
  A 1.25 1.24 -83.3 0 0 144.49 61.08
  C 145.46 45.43 127.29 36.09 114.48 34.27
  C 112.58 34.01 110.50 31.15 107.75 30.72
  Q 92.05 28.25 78.48 35.29
  Q 74.18 37.52 70.67 38.99
  Q 56.01 45.12 46.03 57.78
  C 38.78 66.98 41.63 77.57 43.95 87.87
  Q 44.06 88.39 43.59 88.63
  Q 29.07 96.20 31.67 111.43
  C 33.15 120.13 40.72 127.50 49.70 127.78
  A 1.32 1.31 79.3 0 1 50.86 128.58
  C 56.46 141.78 65.51 155.38 77.27 163.26
  C 86.59 169.51 95.71 172.12 107.46 172.90
  C 120.38 173.75 134.35 173.33 142.43 162.69
  Q 148.51 154.69 151.17 148.64
  C 156.49 136.50 157.30 121.85 157.56 107.58
  C 157.63 103.32 157.05 98.73 156.84 94.28
  C 156.72 91.62 157.52 89.01 157.58 86.19
  C 157.61 84.79 158.07 84.10 159.10 83.27
  A 1.10 1.08 -19.8 0 0 159.49 82.46
  L 159.50 78.53
  A 0.69 0.68 -88.7 0 0 158.85 77.84
  C 155.87 77.69 152.67 78.42 150.70 75.52
  Q 145.88 68.38 140.17 62.04
  A 0.18 0.17 -16.2 0 1 140.33 61.75
  Z"
/>
<path fill="#000000" d="
  M 140.33 61.75
  A 0.18 0.17 -16.2 0 0 140.17 62.04
  Q 145.88 68.38 150.70 75.52
  C 152.67 78.42 155.87 77.69 158.85 77.84
  A 0.69 0.68 -88.7 0 1 159.50 78.53
  L 159.49 82.46
  A 1.10 1.08 -19.8 0 1 159.10 83.27
  C 158.07 84.10 157.61 84.79 157.58 86.19
  C 157.52 89.01 156.72 91.62 156.84 94.28
  C 157.05 98.73 157.63 103.32 157.56 107.58
  C 157.30 121.85 156.49 136.50 151.17 148.64
  Q 148.51 154.69 142.43 162.69
  C 134.35 173.33 120.38 173.75 107.46 172.90
  C 95.71 172.12 86.59 169.51 77.27 163.26
  C 65.51 155.38 56.46 141.78 50.86 128.58
  A 1.32 1.31 79.3 0 0 49.70 127.78
  C 40.72 127.50 33.15 120.13 31.67 111.43
  Q 29.07 96.20 43.59 88.63
  Q 44.06 88.39 43.95 87.87
  C 41.63 77.57 38.78 66.98 46.03 57.78
  Q 56.01 45.12 70.67 38.99
  Q 74.18 37.52 78.48 35.29
  Q 92.05 28.25 107.75 30.72
  C 110.50 31.15 112.58 34.01 114.48 34.27
  C 127.29 36.09 145.46 45.43 144.49 61.08
  A 1.25 1.24 -83.3 0 1 143.03 62.24
  L 140.33 61.75
  Z
  M 123.48 61.77
  L 116.30 57.27
  A 0.53 0.53 0.0 0 0 115.49 57.65
  Q 115.38 58.46 115.68 59.24
  A 1.23 1.23 0.0 0 1 114.03 60.80
  Q 104.15 56.37 93.74 55.60
  C 86.07 55.03 81.84 58.63 75.26 60.47
  Q 71.27 61.59 69.70 62.97
  C 67.59 64.83 64.99 68.64 65.83 71.66
  C 66.47 73.99 68.37 78.66 67.91 80.94
  Q 67.76 81.66 68.49 81.55
  L 98.07 76.86
  Q 98.56 76.78 98.73 76.32
  C 100.25 72.21 116.58 69.86 116.71 76.97
  Q 116.72 77.51 117.23 77.68
  Q 125.07 80.35 132.96 77.78
  Q 133.39 77.64 133.42 77.20
  C 133.76 73.01 138.05 72.30 141.42 72.34
  Q 141.96 72.34 141.63 71.92
  Q 135.19 63.70 126.15 58.47
  Q 124.96 57.77 124.98 59.15
  Q 124.98 59.77 125.20 60.39
  A 1.17 1.17 0.0 0 1 123.48 61.77
  Z
  M 140.8762 76.2475
  A 1.40 0.28 -4.2 0 0 139.4595 76.0708
  A 1.40 0.28 -4.2 0 0 138.0838 76.4525
  A 1.40 0.28 -4.2 0 0 139.5005 76.6292
  A 1.40 0.28 -4.2 0 0 140.8762 76.2475
  Z
  M 97.46 80.89
  C 95.47 82.74 95.68 87.38 96.10 89.97
  C 97.20 96.67 104.48 99.63 110.34 97.33
  C 115.49 95.31 117.95 90.31 118.54 84.97
  A 0.88 0.87 -75.7 0 0 118.01 84.07
  L 113.95 82.34
  A 0.32 0.32 0.0 0 0 113.52 82.75
  Q 114.85 86.20 113.00 88.53
  C 108.66 94.03 100.30 88.20 104.42 82.07
  A 0.30 0.29 -81.5 0 0 104.09 81.62
  L 99.13 83.16
  A 1.43 1.42 87.6 0 1 97.32 81.49
  L 97.46 80.89
  L 101.42 79.27
  Q 101.89 79.08 102.40 79.14
  Q 103.01 79.21 103.57 78.96
  Q 104.03 78.75 103.52 78.76
  Q 99.99 78.83 97.46 80.89
  Z
  M 154.2130 83.8403
  A 1.60 0.28 74.3 0 0 154.0496 82.2242
  A 1.60 0.28 74.3 0 0 153.3470 80.7597
  A 1.60 0.28 74.3 0 0 153.5104 82.3758
  A 1.60 0.28 74.3 0 0 154.2130 83.8403
  Z
  M 145.88 81.92
  C 151.35 92.98 132.85 93.42 136.58 83.08
  A 0.47 0.47 0.0 0 0 135.95 82.49
  L 132.33 84.09
  Q 131.86 84.30 131.90 84.81
  C 132.67 94.99 141.60 101.70 151.21 95.94
  A 0.91 0.91 0.0 0 0 151.64 95.01
  Q 150.63 88.82 148.21 83.07
  A 2.09 2.08 -87.5 0 0 147.25 82.02
  L 146.29 81.52
  Q 145.48 81.10 145.88 81.92
  Z
  M 141.81 142.41
  L 146.40 142.94
  A 1.56 1.55 -79.7 0 0 148.09 141.77
  Q 153.22 120.95 152.09 99.48
  Q 152.06 99.02 151.63 99.19
  Q 146.70 101.11 141.56 100.37
  C 132.99 99.13 130.18 92.89 127.19 85.79
  Q 126.44 84.02 124.91 84.31
  A 1.97 1.96 6.7 0 0 123.48 85.43
  Q 121.92 88.89 120.00 92.33
  Q 114.41 102.32 102.71 100.49
  C 94.94 99.27 92.54 91.84 92.56 85.20
  Q 92.56 83.35 90.73 83.54
  L 68.24 85.81
  Q 67.67 85.87 67.61 86.45
  Q 66.70 95.05 65.93 103.66
  Q 65.62 107.08 66.40 110.24
  Q 70.14 125.36 76.57 139.56
  Q 79.06 145.06 84.46 147.46
  C 88.16 149.11 91.15 146.29 93.99 144.58
  A 1.01 1.00 -30.4 0 1 95.38 144.94
  C 98.84 151.01 105.12 157.19 111.60 159.68
  Q 112.26 159.93 112.52 159.27
  Q 112.90 158.32 113.64 157.67
  A 0.90 0.90 0.0 0 1 114.47 157.46
  Q 119.75 158.73 125.00 157.43
  A 0.86 0.84 -26.2 0 1 125.88 157.72
  L 127.09 159.24
  Q 127.36 159.58 127.77 159.45
  C 134.07 157.54 138.90 148.71 140.93 142.95
  Q 141.15 142.33 141.81 142.41
  Z
  M 53.88 92.33
  C 41.90 91.59 32.19 102.66 37.90 114.08
  Q 42.18 122.64 52.16 123.06
  Q 53.71 123.13 54.40 124.58
  Q 58.20 132.65 62.79 139.95
  Q 63.18 140.57 63.01 139.86
  Q 59.40 124.81 60.68 109.23
  Q 60.76 108.25 60.40 107.29
  Q 57.70 100.06 54.61 92.85
  Q 54.40 92.37 53.88 92.33
  Z"
/>
<path fill="#ffffff" d="
  M 123.48 61.77
  A 1.17 1.17 0.0 0 0 125.20 60.39
  Q 124.98 59.77 124.98 59.15
  Q 124.96 57.77 126.15 58.47
  Q 135.19 63.70 141.63 71.92
  Q 141.96 72.34 141.42 72.34
  C 138.05 72.30 133.76 73.01 133.42 77.20
  Q 133.39 77.64 132.96 77.78
  Q 125.07 80.35 117.23 77.68
  Q 116.72 77.51 116.71 76.97
  C 116.58 69.86 100.25 72.21 98.73 76.32
  Q 98.56 76.78 98.07 76.86
  L 68.49 81.55
  Q 67.76 81.66 67.91 80.94
  C 68.37 78.66 66.47 73.99 65.83 71.66
  C 64.99 68.64 67.59 64.83 69.70 62.97
  Q 71.27 61.59 75.26 60.47
  C 81.84 58.63 86.07 55.03 93.74 55.60
  Q 104.15 56.37 114.03 60.80
  A 1.23 1.23 0.0 0 0 115.68 59.24
  Q 115.38 58.46 115.49 57.65
  A 0.53 0.53 0.0 0 1 116.30 57.27
  L 123.48 61.77
  Z"
/>
<ellipse fill="#ffffff" cx="0.00" cy="0.00" transform="translate(139.48,76.35) rotate(-4.2)" rx="1.40" ry="0.28"/>
<path fill="#ffffff" d="
  M 97.46 80.89
  Q 99.99 78.83 103.52 78.76
  Q 104.03 78.75 103.57 78.96
  Q 103.01 79.21 102.40 79.14
  Q 101.89 79.08 101.42 79.27
  L 97.46 80.89
  Z"
/>
<ellipse fill="#ffffff" cx="0.00" cy="0.00" transform="translate(153.78,82.30) rotate(74.3)" rx="1.60" ry="0.28"/>
<path fill="#ffffff" d="
  M 97.46 80.89
  L 97.32 81.49
  A 1.43 1.42 87.6 0 0 99.13 83.16
  L 104.09 81.62
  A 0.30 0.29 -81.5 0 1 104.42 82.07
  C 100.30 88.20 108.66 94.03 113.00 88.53
  Q 114.85 86.20 113.52 82.75
  A 0.32 0.32 0.0 0 1 113.95 82.34
  L 118.01 84.07
  A 0.88 0.87 -75.7 0 1 118.54 84.97
  C 117.95 90.31 115.49 95.31 110.34 97.33
  C 104.48 99.63 97.20 96.67 96.10 89.97
  C 95.68 87.38 95.47 82.74 97.46 80.89
  Z"
/>
<path fill="#ffffff" d="
  M 145.88 81.92
  Q 145.48 81.10 146.29 81.52
  L 147.25 82.02
  A 2.09 2.08 -87.5 0 1 148.21 83.07
  Q 150.63 88.82 151.64 95.01
  A 0.91 0.91 0.0 0 1 151.21 95.94
  C 141.60 101.70 132.67 94.99 131.90 84.81
  Q 131.86 84.30 132.33 84.09
  L 135.95 82.49
  A 0.47 0.47 0.0 0 1 136.58 83.08
  C 132.85 93.42 151.35 92.98 145.88 81.92
  Z"
/>
<path fill="#ffffff" d="
  M 140.93 142.95
  C 138.90 148.71 134.07 157.54 127.77 159.45
  Q 127.36 159.58 127.09 159.24
  L 125.88 157.72
  A 0.86 0.84 -26.2 0 0 125.00 157.43
  Q 119.75 158.73 114.47 157.46
  A 0.90 0.90 0.0 0 0 113.64 157.67
  Q 112.90 158.32 112.52 159.27
  Q 112.26 159.93 111.60 159.68
  C 105.12 157.19 98.84 151.01 95.38 144.94
  A 1.01 1.00 -30.4 0 0 93.99 144.58
  C 91.15 146.29 88.16 149.11 84.46 147.46
  Q 79.06 145.06 76.57 139.56
  Q 70.14 125.36 66.40 110.24
  Q 65.62 107.08 65.93 103.66
  Q 66.70 95.05 67.61 86.45
  Q 67.67 85.87 68.24 85.81
  L 90.73 83.54
  Q 92.56 83.35 92.56 85.20
  C 92.54 91.84 94.94 99.27 102.71 100.49
  Q 114.41 102.32 120.00 92.33
  Q 121.92 88.89 123.48 85.43
  A 1.97 1.96 6.7 0 1 124.91 84.31
  Q 126.44 84.02 127.19 85.79
  C 130.18 92.89 132.99 99.13 141.56 100.37
  Q 146.70 101.11 151.63 99.19
  Q 152.06 99.02 152.09 99.48
  Q 153.22 120.95 148.09 141.77
  A 1.56 1.55 -79.7 0 1 146.40 142.94
  L 141.81 142.41
  Q 141.15 142.33 140.93 142.95
  Z
  M 135.52 106.69
  C 138.03 110.16 136.19 113.78 132.35 114.42
  Q 129.75 114.86 126.82 115.16
  A 1.24 1.23 -4.0 0 0 125.71 116.43
  L 125.73 116.89
  A 1.63 1.63 0.0 0 0 127.33 118.47
  C 131.43 118.56 136.95 117.70 139.23 114.08
  C 141.71 110.15 139.53 105.03 136.33 102.17
  Q 132.92 99.13 127.58 97.12
  A 1.33 1.33 0.0 0 0 125.92 97.80
  L 125.77 98.12
  Q 125.12 99.50 126.44 100.25
  C 129.65 102.09 132.97 103.16 135.52 106.69
  Z
  M 138.28 126.27
  C 133.48 124.42 126.52 122.10 121.95 122.88
  Q 120.23 123.17 119.01 123.09
  Q 111.20 122.56 102.06 126.19
  Q 99.93 127.03 99.91 129.33
  L 99.90 129.62
  Q 99.88 131.95 102.06 131.13
  Q 119.81 124.46 137.58 131.09
  Q 139.98 131.99 140.00 129.43
  L 140.00 128.78
  A 2.69 2.67 10.8 0 0 138.28 126.27
  Z
  M 109.58 138.39
  Q 119.21 142.13 128.78 138.25
  A 1.43 1.42 -17.6 0 0 129.64 136.60
  L 129.53 136.13
  Q 129.10 134.34 127.38 134.99
  Q 118.93 138.18 110.51 134.98
  A 1.43 1.42 -69.4 0 0 108.66 135.82
  L 108.55 136.12
  Q 107.95 137.76 109.58 138.39
  Z"
/>
<path fill="#ffffff" d="
  M 37.90 114.08
  C 32.19 102.66 41.90 91.59 53.88 92.33
  Q 54.40 92.37 54.61 92.85
  Q 57.70 100.06 60.40 107.29
  Q 60.76 108.25 60.68 109.23
  Q 59.40 124.81 63.01 139.86
  Q 63.18 140.57 62.79 139.95
  Q 58.20 132.65 54.40 124.58
  Q 53.71 123.13 52.16 123.06
  Q 42.18 122.64 37.90 114.08
  Z
  M 50.5516 103.5256
  A 2.58 2.58 0.0 0 0 47.3697 101.7400
  L 47.1386 101.8049
  A 2.58 2.58 0.0 0 0 45.3530 104.9868
  L 47.3284 112.0144
  A 2.58 2.58 0.0 0 0 50.5103 113.8000
  L 50.7414 113.7351
  A 2.58 2.58 0.0 0 0 52.5270 110.5532
  L 50.5516 103.5256
  Z"
/>
<path fill="#000000" d="
  M 132.35 114.42
  C 136.19 113.78 138.03 110.16 135.52 106.69
  C 132.97 103.16 129.65 102.09 126.44 100.25
  Q 125.12 99.50 125.77 98.12
  L 125.92 97.80
  A 1.33 1.33 0.0 0 1 127.58 97.12
  Q 132.92 99.13 136.33 102.17
  C 139.53 105.03 141.71 110.15 139.23 114.08
  C 136.95 117.70 131.43 118.56 127.33 118.47
  A 1.63 1.63 0.0 0 1 125.73 116.89
  L 125.71 116.43
  A 1.24 1.23 -4.0 0 1 126.82 115.16
  Q 129.75 114.86 132.35 114.42
  Z"
/>
<rect fill="#000000" x="-2.70" y="-6.23" transform="translate(48.94,107.77) rotate(-15.7)" width="5.40" height="12.46" rx="2.58"/>
<path fill="#000000" d="
  M 138.28 126.27
  A 2.69 2.67 10.8 0 1 140.00 128.78
  L 140.00 129.43
  Q 139.98 131.99 137.58 131.09
  Q 119.81 124.46 102.06 131.13
  Q 99.88 131.95 99.90 129.62
  L 99.91 129.33
  Q 99.93 127.03 102.06 126.19
  Q 111.20 122.56 119.01 123.09
  Q 120.23 123.17 121.95 122.88
  C 126.52 122.10 133.48 124.42 138.28 126.27
  Z"
/>
<path fill="#000000" d="
  M 109.58 138.39
  Q 107.95 137.76 108.55 136.12
  L 108.66 135.82
  A 1.43 1.42 -69.4 0 1 110.51 134.98
  Q 118.93 138.18 127.38 134.99
  Q 129.10 134.34 129.53 136.13
  L 129.64 136.60
  A 1.43 1.42 -17.6 0 1 128.78 138.25
  Q 119.21 142.13 109.58 138.39
  Z"
/>
</svg>
